<svg width="252" height="76" viewBox="0 0 252 76" fill="none" xmlns="http://www.w3.org/2000/svg">
<path d="M2.40346 0H0.199951V65H2.40346V0Z" fill="black"/>
<path d="M4.50678 0H3.40503V65H4.50678V0Z" fill="black"/>
<path d="M9.91548 0H8.81372V65H9.91548V0Z" fill="black"/>
<path d="M14.3225 0H12.119V65H14.3225V0Z" fill="black"/>
<path d="M18.5291 0H17.4274V65H18.5291V0Z" fill="black"/>
<path d="M22.8361 0H19.631V65H22.8361V0Z" fill="black"/>
<path d="M26.1413 0H23.9377V65H26.1413V0Z" fill="black"/>
<path d="M30.3481 0H27.1429V65H30.3481V0Z" fill="black"/>
<path d="M32.5516 0H31.4498V65H32.5516V0Z" fill="black"/>
<path d="M37.9601 0H35.7566V65H37.9601V0Z" fill="black"/>
<path d="M43.2686 0H40.0635V65H43.2686V0Z" fill="black"/>
<path d="M46.5739 0H45.4722V65H46.5739V0Z" fill="black"/>
<path d="M49.779 0H47.5754V65H49.779V0Z" fill="black"/>
<path d="M55.0874 0H51.8823V65H55.0874V0Z" fill="black"/>
<path d="M58.3926 0H57.2909V65H58.3926V0Z" fill="black"/>
<path d="M60.5963 0H59.4945V65H60.5963V0Z" fill="black"/>
<path d="M65.9047 0H62.6996V65H65.9047V0Z" fill="black"/>
<path d="M69.21 0H67.0065V65H69.21V0Z" fill="black"/>
<path d="M72.4151 0H71.3134V65H72.4151V0Z" fill="black"/>
<path d="M77.7235 0H74.5184V65H77.7235V0Z" fill="black"/>
<path d="M81.0288 0H78.8253V65H81.0288V0Z" fill="black"/>
<path d="M85.3356 0H83.1321V65H85.3356V0Z" fill="black"/>
<path d="M90.6442 0H87.4391V65H90.6442V0Z" fill="black"/>
<path d="M93.9494 0H92.8477V65H93.9494V0Z" fill="black"/>
<path d="M97.1546 0H94.951V65H97.1546V0Z" fill="black"/>
<path d="M100.36 0H99.2578V65H100.36V0Z" fill="black"/>
<path d="M104.667 0H101.461V65H104.667V0Z" fill="black"/>
<path d="M107.972 0H106.87V65H107.972V0Z" fill="black"/>
<path d="M113.28 0H110.075V65H113.28V0Z" fill="black"/>
<path d="M116.585 0H114.382V65H116.585V0Z" fill="black"/>
<path d="M120.892 0H118.689V65H120.892V0Z" fill="black"/>
<path d="M125.099 0H121.894V65H125.099V0Z" fill="black"/>
<path d="M128.404 0H127.302V65H128.404V0Z" fill="black"/>
<path d="M132.711 0H130.508V65H132.711V0Z" fill="black"/>
<path d="M136.918 0H133.713V65H136.918V0Z" fill="black"/>
<path d="M140.223 0H139.121V65H140.223V0Z" fill="black"/>
<path d="M144.53 0H142.326V65H144.53V0Z" fill="black"/>
<path d="M147.835 0H146.734V65H147.835V0Z" fill="black"/>
<path d="M152.042 0H148.837V65H152.042V0Z" fill="black"/>
<path d="M156.449 0H154.245V65H156.449V0Z" fill="black"/>
<path d="M159.654 0H158.552V65H159.654V0Z" fill="black"/>
<path d="M164.963 0H161.757V65H164.963V0Z" fill="black"/>
<path d="M168.268 0H166.064V65H168.268V0Z" fill="black"/>
<path d="M171.473 0H170.371V65H171.473V0Z" fill="black"/>
<path d="M176.781 0H173.576V65H176.781V0Z" fill="black"/>
<path d="M178.985 0H177.883V65H178.985V0Z" fill="black"/>
<path d="M184.394 0H181.188V65H184.394V0Z" fill="black"/>
<path d="M187.699 0H185.495V65H187.699V0Z" fill="black"/>
<path d="M190.904 0H189.802V65H190.904V0Z" fill="black"/>
<path d="M196.212 0H193.007V65H196.212V0Z" fill="black"/>
<path d="M199.518 0H197.314V65H199.518V0Z" fill="black"/>
<path d="M202.723 0H201.621V65H202.723V0Z" fill="black"/>
<path d="M208.031 0H204.826V65H208.031V0Z" fill="black"/>
<path d="M211.337 0H209.133V65H211.337V0Z" fill="black"/>
<path d="M214.542 0H213.44V65H214.542V0Z" fill="black"/>
<path d="M219.85 0H216.645V65H219.85V0Z" fill="black"/>
<path d="M224.257 0H222.054V65H224.257V0Z" fill="black"/>
<path d="M226.36 0H225.259V65H226.36V0Z" fill="black"/>
<path d="M229.666 0H227.462V65H229.666V0Z" fill="black"/>
<path d="M232.871 0H231.769V65H232.871V0Z" fill="black"/>
<path d="M239.381 0H237.178V65H239.381V0Z" fill="black"/>
<path d="M245.691 0H242.486V65H245.691V0Z" fill="black"/>
<path d="M247.895 0H246.793V65H247.895V0Z" fill="black"/>
<path d="M251.2 0H248.996V65H251.2V0Z" fill="black"/>
<path d="M88.7483 74.8857C88.7483 74.9092 88.7439 74.9297 88.7351 74.9473C88.7263 74.9648 88.7073 74.9795 88.678 74.9912C88.6487 75.0029 88.6077 75.0117 88.5549 75.0176C88.5022 75.0234 88.4319 75.0264 88.344 75.0264C88.2678 75.0264 88.2048 75.0234 88.155 75.0176C88.1082 75.0117 88.0701 75.0029 88.0408 74.9912C88.0115 74.9766 87.988 74.9575 87.9705 74.9341C87.9558 74.9106 87.9426 74.8813 87.9309 74.8462L87.408 73.5059C87.3464 73.3535 87.282 73.2144 87.2146 73.0884C87.1501 72.9595 87.0725 72.8496 86.9817 72.7588C86.8909 72.665 86.7839 72.5933 86.6609 72.5435C86.5378 72.4907 86.3899 72.4644 86.217 72.4644H85.7117V74.8857C85.7117 74.9092 85.7043 74.9297 85.6897 74.9473C85.678 74.9648 85.6575 74.9795 85.6282 74.9912C85.6018 75 85.5637 75.0073 85.5139 75.0132C85.467 75.022 85.407 75.0264 85.3337 75.0264C85.2605 75.0264 85.199 75.022 85.1492 75.0132C85.1023 75.0073 85.0642 75 85.0349 74.9912C85.0056 74.9795 84.9851 74.9648 84.9734 74.9473C84.9617 74.9297 84.9558 74.9092 84.9558 74.8857V69.6211C84.9558 69.5068 84.9851 69.4277 85.0437 69.3838C85.1052 69.3369 85.1697 69.3135 85.2371 69.3135H86.4456C86.5891 69.3135 86.7078 69.3179 86.8015 69.3267C86.8982 69.3325 86.9846 69.3398 87.0608 69.3486C87.2805 69.3867 87.4739 69.4468 87.6409 69.5288C87.8108 69.6108 87.9529 69.7148 88.0671 69.8408C88.1814 69.9668 88.2664 70.1118 88.322 70.2759C88.3806 70.437 88.4099 70.6157 88.4099 70.812C88.4099 71.0024 88.3835 71.1738 88.3308 71.3262C88.281 71.4756 88.2078 71.6089 88.1111 71.7261C88.0144 71.8403 87.8987 71.9399 87.7639 72.0249C87.6292 72.1099 87.4783 72.1816 87.3113 72.2402C87.405 72.2812 87.49 72.334 87.5662 72.3984C87.6423 72.46 87.7126 72.5347 87.7771 72.6226C87.8445 72.7104 87.9075 72.8115 87.9661 72.9258C88.0247 73.04 88.0833 73.1689 88.1418 73.3125L88.6516 74.5649C88.6926 74.6704 88.719 74.7451 88.7307 74.7891C88.7424 74.8301 88.7483 74.8623 88.7483 74.8857ZM87.6101 70.8911C87.6101 70.6685 87.5603 70.481 87.4607 70.3286C87.3611 70.1733 87.1941 70.062 86.9597 69.9946C86.8865 69.9741 86.803 69.9595 86.7092 69.9507C86.6184 69.9419 86.4983 69.9375 86.3489 69.9375H85.7117V71.8535H86.45C86.6492 71.8535 86.8206 71.8301 86.9641 71.7832C87.1106 71.7334 87.2322 71.666 87.3289 71.5811C87.4255 71.4932 87.4958 71.3906 87.5398 71.2734C87.5867 71.1562 87.6101 71.0288 87.6101 70.8911ZM92.7737 73.4048C92.7737 73.6714 92.7239 73.9087 92.6243 74.1167C92.5276 74.3247 92.3914 74.502 92.2156 74.6484C92.0427 74.792 91.8376 74.9004 91.6003 74.9736C91.366 75.0469 91.1125 75.0835 90.8401 75.0835C90.6497 75.0835 90.4724 75.0674 90.3083 75.0352C90.1472 75.0029 90.0022 74.9634 89.8733 74.9165C89.7473 74.8696 89.6404 74.8213 89.5525 74.7715C89.4675 74.7217 89.4075 74.6792 89.3723 74.644C89.3401 74.6089 89.3152 74.5649 89.2976 74.5122C89.283 74.4565 89.2756 74.3833 89.2756 74.2925C89.2756 74.228 89.2786 74.1753 89.2844 74.1343C89.2903 74.0903 89.2991 74.0552 89.3108 74.0288C89.3225 74.0024 89.3372 73.9849 89.3547 73.9761C89.3723 73.9644 89.3928 73.9585 89.4163 73.9585C89.4573 73.9585 89.5144 73.9834 89.5876 74.0332C89.6638 74.083 89.7605 74.1372 89.8777 74.1958C89.9949 74.2544 90.1355 74.3101 90.2996 74.3628C90.4666 74.4126 90.6584 74.4375 90.8752 74.4375C91.0393 74.4375 91.1887 74.4155 91.3235 74.3716C91.4612 74.3276 91.5784 74.2661 91.675 74.187C91.7747 74.105 91.8508 74.0054 91.9036 73.8882C91.9563 73.771 91.9827 73.6377 91.9827 73.4883C91.9827 73.3271 91.946 73.1895 91.8728 73.0752C91.7996 72.9609 91.7029 72.8613 91.5828 72.7764C91.4626 72.6885 91.325 72.6094 91.1697 72.5391C91.0173 72.4658 90.8606 72.3926 90.6995 72.3193C90.5383 72.2432 90.3816 72.1597 90.2292 72.0688C90.0769 71.978 89.9407 71.8711 89.8206 71.748C89.7004 71.625 89.6023 71.4814 89.5261 71.3174C89.4529 71.1504 89.4163 70.9512 89.4163 70.7197C89.4163 70.4824 89.4587 70.2715 89.5437 70.0869C89.6316 69.8994 89.7517 69.7427 89.9041 69.6167C90.0593 69.4907 90.2424 69.3955 90.4534 69.3311C90.6672 69.2637 90.8972 69.23 91.1433 69.23C91.2693 69.23 91.3953 69.2417 91.5212 69.2651C91.6501 69.2856 91.7703 69.3149 91.8816 69.353C91.9958 69.3882 92.0969 69.4292 92.1848 69.4761C92.2727 69.52 92.3298 69.5566 92.3562 69.5859C92.3855 69.6123 92.4045 69.6343 92.4133 69.6519C92.4221 69.6665 92.4294 69.687 92.4353 69.7134C92.4412 69.7368 92.4456 69.7661 92.4485 69.8013C92.4514 69.8364 92.4529 69.8818 92.4529 69.9375C92.4529 69.9902 92.45 70.0371 92.4441 70.0781C92.4412 70.1191 92.4353 70.1543 92.4265 70.1836C92.4177 70.21 92.4045 70.2305 92.387 70.2451C92.3723 70.2568 92.3547 70.2627 92.3342 70.2627C92.302 70.2627 92.2507 70.2422 92.1804 70.2012C92.113 70.1602 92.0295 70.1147 91.9299 70.0649C91.8303 70.0122 91.7117 69.9653 91.574 69.9243C91.4392 69.8804 91.2869 69.8584 91.1169 69.8584C90.9587 69.8584 90.821 69.8804 90.7039 69.9243C90.5867 69.9653 90.49 70.021 90.4138 70.0913C90.3376 70.1616 90.2805 70.2451 90.2424 70.3418C90.2043 70.4385 90.1853 70.541 90.1853 70.6494C90.1853 70.8076 90.2219 70.9438 90.2952 71.0581C90.3684 71.1724 90.4651 71.2734 90.5852 71.3613C90.7083 71.4492 90.8474 71.5298 91.0027 71.603C91.158 71.6763 91.3162 71.751 91.4773 71.8271C91.6384 71.9004 91.7966 71.9824 91.9519 72.0732C92.1072 72.1611 92.2449 72.2666 92.365 72.3896C92.488 72.5098 92.5862 72.6533 92.6594 72.8203C92.7356 72.9844 92.7737 73.1792 92.7737 73.4048ZM97.1638 74.6748C97.1638 74.7275 97.1594 74.7744 97.1506 74.8154C97.1448 74.8564 97.1345 74.8916 97.1199 74.9209C97.1082 74.9473 97.0906 74.9678 97.0671 74.9824C97.0466 74.9941 97.0232 75 96.9968 75H93.8547C93.8137 75 93.7771 74.9956 93.7449 74.9868C93.7156 74.9751 93.6892 74.9575 93.6658 74.9341C93.6453 74.9106 93.6292 74.877 93.6174 74.833C93.6086 74.7891 93.6042 74.7349 93.6042 74.6704C93.6042 74.6118 93.6057 74.5605 93.6086 74.5166C93.6145 74.4727 93.6248 74.4346 93.6394 74.4023C93.6541 74.3672 93.6716 74.3335 93.6921 74.3013C93.7156 74.2661 93.7449 74.2295 93.78 74.1914L94.8831 73.0225C95.1379 72.7529 95.3416 72.5112 95.4939 72.2974C95.6492 72.0835 95.7678 71.8887 95.8499 71.7129C95.9348 71.5371 95.9905 71.3774 96.0168 71.2339C96.0432 71.0903 96.0564 70.9556 96.0564 70.8296C96.0564 70.7036 96.0359 70.585 95.9949 70.4736C95.9539 70.3594 95.8938 70.2598 95.8147 70.1748C95.7385 70.0898 95.6418 70.0225 95.5247 69.9727C95.4075 69.9229 95.2727 69.8979 95.1204 69.8979C94.9417 69.8979 94.7805 69.9229 94.637 69.9727C94.4963 70.0225 94.3718 70.0767 94.2634 70.1353C94.158 70.1938 94.0686 70.248 93.9954 70.2979C93.925 70.3477 93.8723 70.3726 93.8372 70.3726C93.8167 70.3726 93.7976 70.3667 93.78 70.355C93.7654 70.3433 93.7522 70.3242 93.7405 70.2979C93.7317 70.2715 93.7244 70.2363 93.7185 70.1924C93.7126 70.1484 93.7097 70.0957 93.7097 70.0342C93.7097 69.9902 93.7112 69.9521 93.7141 69.9199C93.717 69.8877 93.7214 69.8599 93.7273 69.8364C93.7361 69.813 93.7463 69.791 93.7581 69.7705C93.7698 69.75 93.7932 69.7251 93.8284 69.6958C93.8635 69.6636 93.9236 69.6211 94.0085 69.5684C94.0964 69.5156 94.2048 69.4644 94.3337 69.4146C94.4656 69.3618 94.6091 69.3179 94.7644 69.2827C94.9226 69.2476 95.0881 69.23 95.261 69.23C95.5364 69.23 95.7766 69.2695 95.9817 69.3486C96.1897 69.4248 96.3611 69.5303 96.4958 69.665C96.6335 69.7998 96.7361 69.9565 96.8035 70.1353C96.8708 70.314 96.9045 70.5044 96.9045 70.7065C96.9045 70.8882 96.8884 71.0698 96.8562 71.2515C96.824 71.4302 96.7551 71.625 96.6497 71.8359C96.5471 72.0439 96.3977 72.2769 96.2014 72.5347C96.0051 72.7896 95.7444 73.084 95.4192 73.418L94.5183 74.3584H96.9924C97.0159 74.3584 97.0378 74.3657 97.0583 74.3804C97.0818 74.3921 97.1008 74.4111 97.1155 74.4375C97.1331 74.4639 97.1448 74.4976 97.1506 74.5386C97.1594 74.5767 97.1638 74.6221 97.1638 74.6748ZM101.725 74.6748C101.725 74.7275 101.721 74.7744 101.712 74.8154C101.706 74.8564 101.696 74.8916 101.681 74.9209C101.67 74.9473 101.652 74.9678 101.629 74.9824C101.608 74.9941 101.585 75 101.558 75H98.4163C98.3752 75 98.3386 74.9956 98.3064 74.9868C98.2771 74.9751 98.2507 74.9575 98.2273 74.9341C98.2068 74.9106 98.1907 74.877 98.179 74.833C98.1702 74.7891 98.1658 74.7349 98.1658 74.6704C98.1658 74.6118 98.1672 74.5605 98.1702 74.5166C98.176 74.4727 98.1863 74.4346 98.2009 74.4023C98.2156 74.3672 98.2332 74.3335 98.2537 74.3013C98.2771 74.2661 98.3064 74.2295 98.3416 74.1914L99.4446 73.0225C99.6995 72.7529 99.9031 72.5112 100.055 72.2974C100.211 72.0835 100.329 71.8887 100.411 71.7129C100.496 71.5371 100.552 71.3774 100.578 71.2339C100.605 71.0903 100.618 70.9556 100.618 70.8296C100.618 70.7036 100.597 70.585 100.556 70.4736C100.515 70.3594 100.455 70.2598 100.376 70.1748C100.3 70.0898 100.203 70.0225 100.086 69.9727C99.969 69.9229 99.8342 69.8979 99.6819 69.8979C99.5032 69.8979 99.342 69.9229 99.1985 69.9727C99.0579 70.0225 98.9333 70.0767 98.825 70.1353C98.7195 70.1938 98.6301 70.248 98.5569 70.2979C98.4866 70.3477 98.4338 70.3726 98.3987 70.3726C98.3782 70.3726 98.3591 70.3667 98.3416 70.355C98.3269 70.3433 98.3137 70.3242 98.302 70.2979C98.2932 70.2715 98.2859 70.2363 98.28 70.1924C98.2742 70.1484 98.2712 70.0957 98.2712 70.0342C98.2712 69.9902 98.2727 69.9521 98.2756 69.9199C98.2786 69.8877 98.283 69.8599 98.2888 69.8364C98.2976 69.813 98.3079 69.791 98.3196 69.7705C98.3313 69.75 98.3547 69.7251 98.3899 69.6958C98.425 69.6636 98.4851 69.6211 98.5701 69.5684C98.658 69.5156 98.7664 69.4644 98.8953 69.4146C99.0271 69.3618 99.1707 69.3179 99.3259 69.2827C99.4841 69.2476 99.6497 69.23 99.8225 69.23C100.098 69.23 100.338 69.2695 100.543 69.3486C100.751 69.4248 100.923 69.5303 101.057 69.665C101.195 69.7998 101.298 69.9565 101.365 70.1353C101.432 70.314 101.466 70.5044 101.466 70.7065C101.466 70.8882 101.45 71.0698 101.418 71.2515C101.385 71.4302 101.317 71.625 101.211 71.8359C101.109 72.0439 100.959 72.2769 100.763 72.5347C100.567 72.7896 100.306 73.084 99.9807 73.418L99.0798 74.3584H101.554C101.577 74.3584 101.599 74.3657 101.62 74.3804C101.643 74.3921 101.662 74.4111 101.677 74.4375C101.695 74.4639 101.706 74.4976 101.712 74.5386C101.721 74.5767 101.725 74.6221 101.725 74.6748ZM106.476 72.1436C106.476 72.5801 106.441 72.9785 106.37 73.3389C106.303 73.6992 106.189 74.0098 106.028 74.2705C105.869 74.5283 105.661 74.729 105.404 74.8726C105.146 75.0132 104.828 75.0835 104.45 75.0835C104.093 75.0835 103.791 75.0205 103.545 74.8945C103.302 74.7656 103.105 74.5781 102.956 74.332C102.806 74.083 102.699 73.7783 102.635 73.418C102.573 73.0547 102.543 72.6387 102.543 72.1699C102.543 71.7363 102.578 71.3394 102.648 70.979C102.719 70.6157 102.833 70.3052 102.991 70.0474C103.149 69.7866 103.357 69.5859 103.615 69.4453C103.873 69.3018 104.189 69.23 104.564 69.23C104.925 69.23 105.226 69.2944 105.469 69.4233C105.716 69.5493 105.913 69.7368 106.063 69.9858C106.212 70.2319 106.318 70.5366 106.379 70.8999C106.444 71.2603 106.476 71.6748 106.476 72.1436ZM105.702 72.1963C105.702 71.9121 105.692 71.6572 105.672 71.4316C105.651 71.2061 105.62 71.0068 105.579 70.834C105.541 70.6611 105.49 70.5132 105.426 70.3901C105.364 70.2642 105.289 70.1616 105.201 70.0825C105.114 70.0005 105.012 69.9419 104.898 69.9067C104.787 69.8687 104.661 69.8496 104.52 69.8496C104.271 69.8496 104.069 69.9082 103.914 70.0254C103.759 70.1426 103.635 70.3037 103.545 70.5088C103.457 70.7139 103.397 70.9541 103.365 71.2295C103.332 71.5049 103.316 71.8008 103.316 72.1172C103.316 72.542 103.338 72.9038 103.382 73.2026C103.426 73.4985 103.495 73.7402 103.589 73.9277C103.685 74.1152 103.807 74.2515 103.953 74.3364C104.103 74.4214 104.283 74.4639 104.494 74.4639C104.658 74.4639 104.802 74.4375 104.925 74.3848C105.051 74.332 105.157 74.2573 105.245 74.1606C105.336 74.061 105.411 73.9424 105.469 73.8047C105.528 73.667 105.575 73.5146 105.61 73.3477C105.645 73.1807 105.669 73.0005 105.68 72.8071C105.695 72.6108 105.702 72.4072 105.702 72.1963ZM111.037 72.1436C111.037 72.5801 111.002 72.9785 110.932 73.3389C110.865 73.6992 110.75 74.0098 110.589 74.2705C110.431 74.5283 110.223 74.729 109.965 74.8726C109.707 75.0132 109.389 75.0835 109.011 75.0835C108.654 75.0835 108.352 75.0205 108.106 74.8945C107.863 74.7656 107.667 74.5781 107.517 74.332C107.368 74.083 107.261 73.7783 107.197 73.418C107.135 73.0547 107.104 72.6387 107.104 72.1699C107.104 71.7363 107.139 71.3394 107.21 70.979C107.28 70.6157 107.394 70.3052 107.552 70.0474C107.711 69.7866 107.919 69.5859 108.177 69.4453C108.434 69.3018 108.751 69.23 109.126 69.23C109.486 69.23 109.788 69.2944 110.031 69.4233C110.277 69.5493 110.475 69.7368 110.624 69.9858C110.774 70.2319 110.879 70.5366 110.941 70.8999C111.005 71.2603 111.037 71.6748 111.037 72.1436ZM110.264 72.1963C110.264 71.9121 110.254 71.6572 110.233 71.4316C110.213 71.2061 110.182 71.0068 110.141 70.834C110.103 70.6611 110.052 70.5132 109.987 70.3901C109.926 70.2642 109.851 70.1616 109.763 70.0825C109.675 70.0005 109.574 69.9419 109.46 69.9067C109.348 69.8687 109.222 69.8496 109.082 69.8496C108.833 69.8496 108.631 69.9082 108.475 70.0254C108.32 70.1426 108.197 70.3037 108.106 70.5088C108.018 70.7139 107.958 70.9541 107.926 71.2295C107.894 71.5049 107.878 71.8008 107.878 72.1172C107.878 72.542 107.9 72.9038 107.944 73.2026C107.988 73.4985 108.056 73.7402 108.15 73.9277C108.247 74.1152 108.368 74.2515 108.515 74.3364C108.664 74.4214 108.844 74.4639 109.055 74.4639C109.219 74.4639 109.363 74.4375 109.486 74.3848C109.612 74.332 109.719 74.2573 109.807 74.1606C109.898 74.061 109.972 73.9424 110.031 73.8047C110.09 73.667 110.136 73.5146 110.172 73.3477C110.207 73.1807 110.23 73.0005 110.242 72.8071C110.257 72.6108 110.264 72.4072 110.264 72.1963ZM115.41 74.6748C115.41 74.7275 115.406 74.7744 115.397 74.8154C115.391 74.8564 115.381 74.8916 115.366 74.9209C115.354 74.9473 115.337 74.9678 115.313 74.9824C115.293 74.9941 115.269 75 115.243 75H112.101C112.06 75 112.023 74.9956 111.991 74.9868C111.962 74.9751 111.935 74.9575 111.912 74.9341C111.891 74.9106 111.875 74.877 111.864 74.833C111.855 74.7891 111.85 74.7349 111.85 74.6704C111.85 74.6118 111.852 74.5605 111.855 74.5166C111.861 74.4727 111.871 74.4346 111.885 74.4023C111.9 74.3672 111.918 74.3335 111.938 74.3013C111.962 74.2661 111.991 74.2295 112.026 74.1914L113.129 73.0225C113.384 72.7529 113.588 72.5112 113.74 72.2974C113.895 72.0835 114.014 71.8887 114.096 71.7129C114.181 71.5371 114.237 71.3774 114.263 71.2339C114.289 71.0903 114.302 70.9556 114.302 70.8296C114.302 70.7036 114.282 70.585 114.241 70.4736C114.2 70.3594 114.14 70.2598 114.061 70.1748C113.985 70.0898 113.888 70.0225 113.771 69.9727C113.654 69.9229 113.519 69.8979 113.366 69.8979C113.188 69.8979 113.027 69.9229 112.883 69.9727C112.742 70.0225 112.618 70.0767 112.51 70.1353C112.404 70.1938 112.315 70.248 112.241 70.2979C112.171 70.3477 112.118 70.3726 112.083 70.3726C112.063 70.3726 112.044 70.3667 112.026 70.355C112.011 70.3433 111.998 70.3242 111.987 70.2979C111.978 70.2715 111.97 70.2363 111.965 70.1924C111.959 70.1484 111.956 70.0957 111.956 70.0342C111.956 69.9902 111.957 69.9521 111.96 69.9199C111.963 69.8877 111.968 69.8599 111.973 69.8364C111.982 69.813 111.992 69.791 112.004 69.7705C112.016 69.75 112.039 69.7251 112.074 69.6958C112.11 69.6636 112.17 69.6211 112.255 69.5684C112.343 69.5156 112.451 69.4644 112.58 69.4146C112.712 69.3618 112.855 69.3179 113.01 69.2827C113.169 69.2476 113.334 69.23 113.507 69.23C113.782 69.23 114.023 69.2695 114.228 69.3486C114.436 69.4248 114.607 69.5303 114.742 69.665C114.88 69.7998 114.982 69.9565 115.05 70.1353C115.117 70.314 115.151 70.5044 115.151 70.7065C115.151 70.8882 115.135 71.0698 115.102 71.2515C115.07 71.4302 115.001 71.625 114.896 71.8359C114.793 72.0439 114.644 72.2769 114.448 72.5347C114.251 72.7896 113.99 73.084 113.665 73.418L112.764 74.3584H115.239C115.262 74.3584 115.284 74.3657 115.304 74.3804C115.328 74.3921 115.347 74.4111 115.362 74.4375C115.379 74.4639 115.391 74.4976 115.397 74.5386C115.406 74.5767 115.41 74.6221 115.41 74.6748ZM119.927 73.374C119.927 73.6348 119.882 73.8706 119.791 74.0815C119.7 74.2896 119.57 74.4683 119.4 74.6177C119.23 74.7671 119.021 74.8828 118.772 74.9648C118.523 75.0439 118.241 75.0835 117.928 75.0835C117.738 75.0835 117.559 75.0674 117.392 75.0352C117.228 75.0059 117.081 74.9707 116.952 74.9297C116.823 74.8857 116.717 74.8418 116.632 74.7979C116.547 74.751 116.492 74.7173 116.469 74.6968C116.448 74.6763 116.432 74.6558 116.421 74.6353C116.409 74.6147 116.399 74.5898 116.39 74.5605C116.381 74.5312 116.374 74.4961 116.368 74.4551C116.365 74.4111 116.364 74.3584 116.364 74.2969C116.364 74.1914 116.374 74.1182 116.394 74.0771C116.415 74.0361 116.444 74.0156 116.482 74.0156C116.509 74.0156 116.56 74.0391 116.636 74.0859C116.715 74.1328 116.815 74.1841 116.935 74.2397C117.058 74.2925 117.2 74.3423 117.361 74.3892C117.525 74.436 117.707 74.4595 117.906 74.4595C118.099 74.4595 118.269 74.4346 118.416 74.3848C118.562 74.335 118.685 74.2646 118.785 74.1738C118.885 74.083 118.959 73.9761 119.009 73.853C119.059 73.7271 119.084 73.5908 119.084 73.4443C119.084 73.2832 119.052 73.1382 118.987 73.0093C118.926 72.8804 118.833 72.769 118.71 72.6753C118.59 72.5815 118.441 72.5098 118.262 72.46C118.086 72.4102 117.885 72.3853 117.66 72.3853H117.119C117.096 72.3853 117.073 72.3809 117.049 72.3721C117.029 72.3604 117.01 72.3428 116.992 72.3193C116.977 72.2959 116.964 72.2651 116.952 72.2271C116.944 72.189 116.939 72.1392 116.939 72.0776C116.939 72.022 116.944 71.9766 116.952 71.9414C116.961 71.9033 116.973 71.874 116.988 71.8535C117.005 71.8301 117.024 71.814 117.045 71.8052C117.065 71.7935 117.089 71.7876 117.115 71.7876H117.612C117.805 71.7876 117.978 71.7627 118.13 71.7129C118.285 71.6631 118.416 71.5913 118.521 71.4976C118.63 71.4038 118.712 71.2925 118.767 71.1636C118.826 71.0317 118.855 70.8853 118.855 70.7241C118.855 70.6069 118.836 70.4956 118.798 70.3901C118.76 70.2817 118.703 70.188 118.627 70.1089C118.551 70.0298 118.452 69.9683 118.332 69.9243C118.215 69.8774 118.079 69.854 117.924 69.854C117.754 69.854 117.597 69.8804 117.453 69.9331C117.313 69.9829 117.187 70.0371 117.075 70.0957C116.964 70.1543 116.872 70.21 116.799 70.2627C116.725 70.3125 116.674 70.3374 116.645 70.3374C116.624 70.3374 116.605 70.3345 116.588 70.3286C116.573 70.3198 116.56 70.3052 116.548 70.2847C116.539 70.2612 116.532 70.2305 116.526 70.1924C116.523 70.1514 116.522 70.0986 116.522 70.0342C116.522 69.9902 116.523 69.9521 116.526 69.9199C116.529 69.8848 116.535 69.8555 116.544 69.832C116.552 69.8057 116.563 69.7822 116.574 69.7617C116.586 69.7412 116.605 69.7178 116.632 69.6914C116.661 69.6621 116.718 69.6211 116.803 69.5684C116.888 69.5156 116.992 69.4644 117.115 69.4146C117.241 69.3618 117.385 69.3179 117.546 69.2827C117.71 69.2476 117.885 69.23 118.073 69.23C118.337 69.23 118.568 69.2637 118.767 69.3311C118.967 69.3984 119.132 69.4937 119.264 69.6167C119.399 69.7397 119.498 69.8877 119.563 70.0605C119.63 70.2305 119.664 70.4194 119.664 70.6274C119.664 70.8062 119.64 70.9731 119.594 71.1284C119.547 71.2808 119.478 71.417 119.387 71.5371C119.296 71.6543 119.185 71.7554 119.053 71.8403C118.921 71.9224 118.769 71.9795 118.596 72.0117V72.0205C118.792 72.041 118.971 72.0908 119.132 72.1699C119.296 72.2461 119.437 72.3428 119.554 72.46C119.671 72.5771 119.762 72.7148 119.826 72.873C119.894 73.0283 119.927 73.1953 119.927 73.374ZM124.722 72.1436C124.722 72.5801 124.687 72.9785 124.616 73.3389C124.549 73.6992 124.435 74.0098 124.274 74.2705C124.115 74.5283 123.907 74.729 123.65 74.8726C123.392 75.0132 123.074 75.0835 122.696 75.0835C122.339 75.0835 122.037 75.0205 121.791 74.8945C121.548 74.7656 121.351 74.5781 121.202 74.332C121.052 74.083 120.946 73.7783 120.881 73.418C120.82 73.0547 120.789 72.6387 120.789 72.1699C120.789 71.7363 120.824 71.3394 120.894 70.979C120.965 70.6157 121.079 70.3052 121.237 70.0474C121.395 69.7866 121.603 69.5859 121.861 69.4453C122.119 69.3018 122.435 69.23 122.81 69.23C123.171 69.23 123.472 69.2944 123.716 69.4233C123.962 69.5493 124.159 69.7368 124.309 69.9858C124.458 70.2319 124.564 70.5366 124.625 70.8999C124.69 71.2603 124.722 71.6748 124.722 72.1436ZM123.948 72.1963C123.948 71.9121 123.938 71.6572 123.918 71.4316C123.897 71.2061 123.866 71.0068 123.825 70.834C123.787 70.6611 123.736 70.5132 123.672 70.3901C123.61 70.2642 123.535 70.1616 123.448 70.0825C123.36 70.0005 123.259 69.9419 123.144 69.9067C123.033 69.8687 122.907 69.8496 122.766 69.8496C122.517 69.8496 122.315 69.9082 122.16 70.0254C122.005 70.1426 121.882 70.3037 121.791 70.5088C121.703 70.7139 121.643 70.9541 121.611 71.2295C121.578 71.5049 121.562 71.8008 121.562 72.1172C121.562 72.542 121.584 72.9038 121.628 73.2026C121.672 73.4985 121.741 73.7402 121.835 73.9277C121.931 74.1152 122.053 74.2515 122.199 74.3364C122.349 74.4214 122.529 74.4639 122.74 74.4639C122.904 74.4639 123.048 74.4375 123.171 74.3848C123.297 74.332 123.404 74.2573 123.491 74.1606C123.582 74.061 123.657 73.9424 123.716 73.8047C123.774 73.667 123.821 73.5146 123.856 73.3477C123.891 73.1807 123.915 73.0005 123.927 72.8071C123.941 72.6108 123.948 72.4072 123.948 72.1963ZM129.068 73.1719C129.068 73.4766 129.017 73.7476 128.914 73.9849C128.812 74.2222 128.667 74.4229 128.479 74.5869C128.292 74.748 128.068 74.8711 127.807 74.9561C127.549 75.041 127.262 75.0835 126.946 75.0835C126.77 75.0835 126.603 75.0703 126.445 75.0439C126.286 75.0205 126.146 74.9912 126.023 74.9561C125.9 74.918 125.799 74.8813 125.719 74.8462C125.64 74.811 125.589 74.7832 125.566 74.7627C125.545 74.7422 125.531 74.7231 125.522 74.7056C125.513 74.688 125.504 74.6675 125.495 74.644C125.49 74.6177 125.485 74.5854 125.482 74.5474C125.479 74.5093 125.478 74.4639 125.478 74.4111C125.478 74.3613 125.479 74.3174 125.482 74.2793C125.488 74.2383 125.497 74.2061 125.509 74.1826C125.52 74.1562 125.533 74.1372 125.548 74.1255C125.566 74.1138 125.585 74.1079 125.605 74.1079C125.635 74.1079 125.68 74.127 125.741 74.165C125.803 74.2002 125.885 74.2397 125.988 74.2837C126.093 74.3247 126.222 74.3643 126.374 74.4023C126.53 74.4404 126.713 74.4595 126.924 74.4595C127.12 74.4595 127.3 74.436 127.464 74.3892C127.628 74.3423 127.769 74.269 127.886 74.1694C128.006 74.0698 128.1 73.9453 128.167 73.7959C128.235 73.6436 128.268 73.459 128.268 73.2422C128.268 73.0605 128.239 72.9009 128.18 72.7632C128.125 72.6226 128.037 72.5068 127.917 72.416C127.8 72.3223 127.65 72.2534 127.469 72.2095C127.287 72.1626 127.07 72.1392 126.818 72.1392C126.639 72.1392 126.486 72.1479 126.357 72.1655C126.228 72.1831 126.108 72.1919 125.996 72.1919C125.914 72.1919 125.856 72.1729 125.821 72.1348C125.785 72.0967 125.768 72.0234 125.768 71.915V69.5991C125.768 69.5024 125.79 69.4307 125.834 69.3838C125.881 69.3369 125.947 69.3135 126.031 69.3135H128.55C128.573 69.3135 128.595 69.3208 128.615 69.3354C128.639 69.3472 128.658 69.3662 128.673 69.3926C128.687 69.4189 128.698 69.4526 128.703 69.4937C128.712 69.5347 128.717 69.583 128.717 69.6387C128.717 69.7441 128.702 69.8262 128.673 69.8848C128.643 69.9434 128.602 69.9727 128.55 69.9727H126.427V71.5679C126.53 71.5532 126.634 71.5444 126.739 71.5415C126.847 71.5386 126.972 71.5371 127.113 71.5371C127.438 71.5371 127.722 71.5767 127.965 71.6558C128.208 71.7319 128.41 71.8418 128.572 71.9854C128.736 72.126 128.859 72.2974 128.941 72.4995C129.026 72.7017 129.068 72.9258 129.068 73.1719ZM133.63 73.1719C133.63 73.4766 133.578 73.7476 133.476 73.9849C133.373 74.2222 133.228 74.4229 133.041 74.5869C132.853 74.748 132.629 74.8711 132.368 74.9561C132.111 75.041 131.823 75.0835 131.507 75.0835C131.331 75.0835 131.164 75.0703 131.006 75.0439C130.848 75.0205 130.707 74.9912 130.584 74.9561C130.461 74.918 130.36 74.8813 130.281 74.8462C130.202 74.811 130.151 74.7832 130.127 74.7627C130.107 74.7422 130.092 74.7231 130.083 74.7056C130.074 74.688 130.066 74.6675 130.057 74.644C130.051 74.6177 130.047 74.5854 130.044 74.5474C130.041 74.5093 130.039 74.4639 130.039 74.4111C130.039 74.3613 130.041 74.3174 130.044 74.2793C130.05 74.2383 130.058 74.2061 130.07 74.1826C130.082 74.1562 130.095 74.1372 130.11 74.1255C130.127 74.1138 130.146 74.1079 130.167 74.1079C130.196 74.1079 130.241 74.127 130.303 74.165C130.365 74.2002 130.447 74.2397 130.549 74.2837C130.655 74.3247 130.783 74.3643 130.936 74.4023C131.091 74.4404 131.274 74.4595 131.485 74.4595C131.681 74.4595 131.862 74.436 132.026 74.3892C132.19 74.3423 132.33 74.269 132.448 74.1694C132.568 74.0698 132.661 73.9453 132.729 73.7959C132.796 73.6436 132.83 73.459 132.83 73.2422C132.83 73.0605 132.801 72.9009 132.742 72.7632C132.686 72.6226 132.598 72.5068 132.478 72.416C132.361 72.3223 132.212 72.2534 132.03 72.2095C131.848 72.1626 131.632 72.1392 131.38 72.1392C131.201 72.1392 131.047 72.1479 130.918 72.1655C130.789 72.1831 130.669 72.1919 130.558 72.1919C130.476 72.1919 130.417 72.1729 130.382 72.1348C130.347 72.0967 130.329 72.0234 130.329 71.915V69.5991C130.329 69.5024 130.351 69.4307 130.395 69.3838C130.442 69.3369 130.508 69.3135 130.593 69.3135H133.111C133.135 69.3135 133.156 69.3208 133.177 69.3354C133.2 69.3472 133.219 69.3662 133.234 69.3926C133.249 69.4189 133.259 69.4526 133.265 69.4937C133.274 69.5347 133.278 69.583 133.278 69.6387C133.278 69.7441 133.263 69.8262 133.234 69.8848C133.205 69.9434 133.164 69.9727 133.111 69.9727H130.989V71.5679C131.091 71.5532 131.195 71.5444 131.301 71.5415C131.409 71.5386 131.533 71.5371 131.674 71.5371C131.999 71.5371 132.283 71.5767 132.527 71.6558C132.77 71.7319 132.972 71.8418 133.133 71.9854C133.297 72.126 133.42 72.2974 133.502 72.4995C133.587 72.7017 133.63 72.9258 133.63 73.1719ZM138.174 73.374C138.174 73.6348 138.128 73.8706 138.037 74.0815C137.947 74.2896 137.816 74.4683 137.646 74.6177C137.476 74.7671 137.267 74.8828 137.018 74.9648C136.769 75.0439 136.488 75.0835 136.174 75.0835C135.984 75.0835 135.805 75.0674 135.638 75.0352C135.474 75.0059 135.327 74.9707 135.198 74.9297C135.07 74.8857 134.963 74.8418 134.878 74.7979C134.793 74.751 134.739 74.7173 134.715 74.6968C134.695 74.6763 134.678 74.6558 134.667 74.6353C134.655 74.6147 134.645 74.5898 134.636 74.5605C134.627 74.5312 134.62 74.4961 134.614 74.4551C134.611 74.4111 134.61 74.3584 134.61 74.2969C134.61 74.1914 134.62 74.1182 134.64 74.0771C134.661 74.0361 134.69 74.0156 134.728 74.0156C134.755 74.0156 134.806 74.0391 134.882 74.0859C134.961 74.1328 135.061 74.1841 135.181 74.2397C135.304 74.2925 135.446 74.3423 135.607 74.3892C135.771 74.436 135.953 74.4595 136.152 74.4595C136.345 74.4595 136.515 74.4346 136.662 74.3848C136.808 74.335 136.931 74.2646 137.031 74.1738C137.131 74.083 137.205 73.9761 137.255 73.853C137.305 73.7271 137.33 73.5908 137.33 73.4443C137.33 73.2832 137.298 73.1382 137.233 73.0093C137.172 72.8804 137.079 72.769 136.956 72.6753C136.836 72.5815 136.687 72.5098 136.508 72.46C136.332 72.4102 136.132 72.3853 135.906 72.3853H135.365C135.342 72.3853 135.319 72.3809 135.295 72.3721C135.275 72.3604 135.256 72.3428 135.238 72.3193C135.223 72.2959 135.21 72.2651 135.198 72.2271C135.19 72.189 135.185 72.1392 135.185 72.0776C135.185 72.022 135.19 71.9766 135.198 71.9414C135.207 71.9033 135.219 71.874 135.234 71.8535C135.251 71.8301 135.27 71.814 135.291 71.8052C135.311 71.7935 135.335 71.7876 135.361 71.7876H135.858C136.051 71.7876 136.224 71.7627 136.376 71.7129C136.531 71.6631 136.662 71.5913 136.767 71.4976C136.876 71.4038 136.958 71.2925 137.013 71.1636C137.072 71.0317 137.101 70.8853 137.101 70.7241C137.101 70.6069 137.082 70.4956 137.044 70.3901C137.006 70.2817 136.949 70.188 136.873 70.1089C136.797 70.0298 136.698 69.9683 136.578 69.9243C136.461 69.8774 136.325 69.854 136.17 69.854C136 69.854 135.843 69.8804 135.699 69.9331C135.559 69.9829 135.433 70.0371 135.322 70.0957C135.21 70.1543 135.118 70.21 135.045 70.2627C134.971 70.3125 134.92 70.3374 134.891 70.3374C134.87 70.3374 134.851 70.3345 134.834 70.3286C134.819 70.3198 134.806 70.3052 134.794 70.2847C134.785 70.2612 134.778 70.2305 134.772 70.1924C134.769 70.1514 134.768 70.0986 134.768 70.0342C134.768 69.9902 134.769 69.9521 134.772 69.9199C134.775 69.8848 134.781 69.8555 134.79 69.832C134.799 69.8057 134.809 69.7822 134.821 69.7617C134.832 69.7412 134.851 69.7178 134.878 69.6914C134.907 69.6621 134.964 69.6211 135.049 69.5684C135.134 69.5156 135.238 69.4644 135.361 69.4146C135.487 69.3618 135.631 69.3179 135.792 69.2827C135.956 69.2476 136.132 69.23 136.319 69.23C136.583 69.23 136.814 69.2637 137.013 69.3311C137.213 69.3984 137.378 69.4937 137.51 69.6167C137.645 69.7397 137.744 69.8877 137.809 70.0605C137.876 70.2305 137.91 70.4194 137.91 70.6274C137.91 70.8062 137.886 70.9731 137.84 71.1284C137.793 71.2808 137.724 71.417 137.633 71.5371C137.542 71.6543 137.431 71.7554 137.299 71.8403C137.167 71.9224 137.015 71.9795 136.842 72.0117V72.0205C137.038 72.041 137.217 72.0908 137.378 72.1699C137.542 72.2461 137.683 72.3428 137.8 72.46C137.917 72.5771 138.008 72.7148 138.073 72.873C138.14 73.0283 138.174 73.1953 138.174 73.374ZM143.021 73.3828C143.021 73.4795 143.006 73.5557 142.977 73.6113C142.948 73.667 142.906 73.6948 142.854 73.6948H142.212V74.8901C142.212 74.9136 142.206 74.9341 142.195 74.9517C142.183 74.9663 142.162 74.9795 142.133 74.9912C142.104 75.0029 142.066 75.0117 142.019 75.0176C141.972 75.0234 141.912 75.0264 141.839 75.0264C141.768 75.0264 141.71 75.0234 141.663 75.0176C141.616 75.0117 141.578 75.0029 141.549 74.9912C141.522 74.9795 141.503 74.9663 141.491 74.9517C141.483 74.9341 141.478 74.9136 141.478 74.8901V73.6948H139.132C139.096 73.6948 139.067 73.6904 139.044 73.6816C139.02 73.6729 138.998 73.6567 138.978 73.6333C138.96 73.6099 138.947 73.5762 138.938 73.5322C138.932 73.4883 138.929 73.4312 138.929 73.3608C138.929 73.3052 138.931 73.2554 138.934 73.2114C138.937 73.1675 138.943 73.1279 138.951 73.0928C138.96 73.0547 138.972 73.0195 138.987 72.9873C139.001 72.9521 139.019 72.9155 139.039 72.8774L141.087 69.4233C141.102 69.3999 141.122 69.3794 141.149 69.3618C141.178 69.3442 141.215 69.3296 141.259 69.3179C141.302 69.3062 141.357 69.2988 141.421 69.2959C141.486 69.29 141.562 69.2871 141.65 69.2871C141.746 69.2871 141.83 69.2915 141.9 69.3003C141.973 69.3062 142.032 69.3149 142.076 69.3267C142.12 69.3384 142.154 69.3545 142.177 69.375C142.2 69.3926 142.212 69.4146 142.212 69.4409V73.0708H142.854C142.904 73.0708 142.943 73.0972 142.972 73.1499C143.005 73.1997 143.021 73.2773 143.021 73.3828ZM141.478 69.9507H141.469L139.619 73.0708H141.478V69.9507ZM147.582 73.3828C147.582 73.4795 147.568 73.5557 147.538 73.6113C147.509 73.667 147.468 73.6948 147.415 73.6948H146.774V74.8901C146.774 74.9136 146.768 74.9341 146.756 74.9517C146.744 74.9663 146.724 74.9795 146.695 74.9912C146.665 75.0029 146.627 75.0117 146.58 75.0176C146.533 75.0234 146.473 75.0264 146.4 75.0264C146.33 75.0264 146.271 75.0234 146.224 75.0176C146.177 75.0117 146.139 75.0029 146.11 74.9912C146.084 74.9795 146.065 74.9663 146.053 74.9517C146.044 74.9341 146.04 74.9136 146.04 74.8901V73.6948H143.693C143.658 73.6948 143.629 73.6904 143.605 73.6816C143.582 73.6729 143.56 73.6567 143.539 73.6333C143.522 73.6099 143.509 73.5762 143.5 73.5322C143.494 73.4883 143.491 73.4312 143.491 73.3608C143.491 73.3052 143.492 73.2554 143.495 73.2114C143.498 73.1675 143.504 73.1279 143.513 73.0928C143.522 73.0547 143.533 73.0195 143.548 72.9873C143.563 72.9521 143.58 72.9155 143.601 72.8774L145.649 69.4233C145.663 69.3999 145.684 69.3794 145.71 69.3618C145.74 69.3442 145.776 69.3296 145.82 69.3179C145.864 69.3062 145.918 69.2988 145.983 69.2959C146.047 69.29 146.123 69.2871 146.211 69.2871C146.308 69.2871 146.391 69.2915 146.462 69.3003C146.535 69.3062 146.594 69.3149 146.637 69.3267C146.681 69.3384 146.715 69.3545 146.739 69.375C146.762 69.3926 146.774 69.4146 146.774 69.4409V73.0708H147.415C147.465 73.0708 147.505 73.0972 147.534 73.1499C147.566 73.1997 147.582 73.2773 147.582 73.3828ZM146.04 69.9507H146.031L144.181 73.0708H146.04V69.9507ZM152.091 72.1436C152.091 72.5801 152.056 72.9785 151.986 73.3389C151.918 73.6992 151.804 74.0098 151.643 74.2705C151.485 74.5283 151.277 74.729 151.019 74.8726C150.761 75.0132 150.443 75.0835 150.065 75.0835C149.708 75.0835 149.406 75.0205 149.16 74.8945C148.917 74.7656 148.72 74.5781 148.571 74.332C148.422 74.083 148.315 73.7783 148.25 73.418C148.189 73.0547 148.158 72.6387 148.158 72.1699C148.158 71.7363 148.193 71.3394 148.263 70.979C148.334 70.6157 148.448 70.3052 148.606 70.0474C148.764 69.7866 148.972 69.5859 149.23 69.4453C149.488 69.3018 149.804 69.23 150.179 69.23C150.54 69.23 150.842 69.2944 151.085 69.4233C151.331 69.5493 151.529 69.7368 151.678 69.9858C151.827 70.2319 151.933 70.5366 151.994 70.8999C152.059 71.2603 152.091 71.6748 152.091 72.1436ZM151.318 72.1963C151.318 71.9121 151.307 71.6572 151.287 71.4316C151.266 71.2061 151.236 71.0068 151.195 70.834C151.156 70.6611 151.105 70.5132 151.041 70.3901C150.979 70.2642 150.905 70.1616 150.817 70.0825C150.729 70.0005 150.628 69.9419 150.513 69.9067C150.402 69.8687 150.276 69.8496 150.135 69.8496C149.886 69.8496 149.684 69.9082 149.529 70.0254C149.374 70.1426 149.251 70.3037 149.16 70.5088C149.072 70.7139 149.012 70.9541 148.98 71.2295C148.948 71.5049 148.931 71.8008 148.931 72.1172C148.931 72.542 148.953 72.9038 148.997 73.2026C149.041 73.4985 149.11 73.7402 149.204 73.9277C149.301 74.1152 149.422 74.2515 149.569 74.3364C149.718 74.4214 149.898 74.4639 150.109 74.4639C150.273 74.4639 150.417 74.4375 150.54 74.3848C150.666 74.332 150.773 74.2573 150.861 74.1606C150.951 74.061 151.026 73.9424 151.085 73.8047C151.143 73.667 151.19 73.5146 151.225 73.3477C151.26 73.1807 151.284 73.0005 151.296 72.8071C151.31 72.6108 151.318 72.4072 151.318 72.1963ZM156.653 72.1436C156.653 72.5801 156.617 72.9785 156.547 73.3389C156.48 73.6992 156.365 74.0098 156.204 74.2705C156.046 74.5283 155.838 74.729 155.58 74.8726C155.323 75.0132 155.005 75.0835 154.627 75.0835C154.269 75.0835 153.968 75.0205 153.721 74.8945C153.478 74.7656 153.282 74.5781 153.133 74.332C152.983 74.083 152.876 73.7783 152.812 73.418C152.75 73.0547 152.719 72.6387 152.719 72.1699C152.719 71.7363 152.755 71.3394 152.825 70.979C152.895 70.6157 153.01 70.3052 153.168 70.0474C153.326 69.7866 153.534 69.5859 153.792 69.4453C154.05 69.3018 154.366 69.23 154.741 69.23C155.101 69.23 155.403 69.2944 155.646 69.4233C155.892 69.5493 156.09 69.7368 156.24 69.9858C156.389 70.2319 156.494 70.5366 156.556 70.8999C156.62 71.2603 156.653 71.6748 156.653 72.1436ZM155.879 72.1963C155.879 71.9121 155.869 71.6572 155.848 71.4316C155.828 71.2061 155.797 71.0068 155.756 70.834C155.718 70.6611 155.667 70.5132 155.602 70.3901C155.541 70.2642 155.466 70.1616 155.378 70.0825C155.29 70.0005 155.189 69.9419 155.075 69.9067C154.964 69.8687 154.838 69.8496 154.697 69.8496C154.448 69.8496 154.246 69.9082 154.091 70.0254C153.935 70.1426 153.812 70.3037 153.721 70.5088C153.634 70.7139 153.573 70.9541 153.541 71.2295C153.509 71.5049 153.493 71.8008 153.493 72.1172C153.493 72.542 153.515 72.9038 153.559 73.2026C153.603 73.4985 153.672 73.7402 153.765 73.9277C153.862 74.1152 153.984 74.2515 154.13 74.3364C154.28 74.4214 154.46 74.4639 154.671 74.4639C154.835 74.4639 154.978 74.4375 155.101 74.3848C155.227 74.332 155.334 74.2573 155.422 74.1606C155.513 74.061 155.588 73.9424 155.646 73.8047C155.705 73.667 155.752 73.5146 155.787 73.3477C155.822 73.1807 155.845 73.0005 155.857 72.8071C155.872 72.6108 155.879 72.4072 155.879 72.1963ZM161.214 72.1436C161.214 72.5801 161.179 72.9785 161.109 73.3389C161.041 73.6992 160.927 74.0098 160.766 74.2705C160.608 74.5283 160.4 74.729 160.142 74.8726C159.884 75.0132 159.566 75.0835 159.188 75.0835C158.831 75.0835 158.529 75.0205 158.283 74.8945C158.04 74.7656 157.844 74.5781 157.694 74.332C157.545 74.083 157.438 73.7783 157.373 73.418C157.312 73.0547 157.281 72.6387 157.281 72.1699C157.281 71.7363 157.316 71.3394 157.386 70.979C157.457 70.6157 157.571 70.3052 157.729 70.0474C157.887 69.7866 158.095 69.5859 158.353 69.4453C158.611 69.3018 158.927 69.23 159.302 69.23C159.663 69.23 159.965 69.2944 160.208 69.4233C160.454 69.5493 160.652 69.7368 160.801 69.9858C160.95 70.2319 161.056 70.5366 161.117 70.8999C161.182 71.2603 161.214 71.6748 161.214 72.1436ZM160.441 72.1963C160.441 71.9121 160.43 71.6572 160.41 71.4316C160.389 71.2061 160.359 71.0068 160.318 70.834C160.28 70.6611 160.228 70.5132 160.164 70.3901C160.102 70.2642 160.028 70.1616 159.94 70.0825C159.852 70.0005 159.751 69.9419 159.636 69.9067C159.525 69.8687 159.399 69.8496 159.259 69.8496C159.01 69.8496 158.807 69.9082 158.652 70.0254C158.497 70.1426 158.374 70.3037 158.283 70.5088C158.195 70.7139 158.135 70.9541 158.103 71.2295C158.071 71.5049 158.054 71.8008 158.054 72.1172C158.054 72.542 158.076 72.9038 158.12 73.2026C158.164 73.4985 158.233 73.7402 158.327 73.9277C158.424 74.1152 158.545 74.2515 158.692 74.3364C158.841 74.4214 159.021 74.4639 159.232 74.4639C159.396 74.4639 159.54 74.4375 159.663 74.3848C159.789 74.332 159.896 74.2573 159.984 74.1606C160.074 74.061 160.149 73.9424 160.208 73.8047C160.266 73.667 160.313 73.5146 160.348 73.3477C160.384 73.1807 160.407 73.0005 160.419 72.8071C160.433 72.6108 160.441 72.4072 160.441 72.1963ZM165.6 74.7012C165.6 74.7568 165.595 74.8037 165.587 74.8418C165.578 74.8799 165.566 74.9106 165.552 74.9341C165.537 74.9575 165.519 74.9751 165.499 74.9868C165.481 74.9956 165.462 75 165.442 75H162.471C162.45 75 162.431 74.9956 162.414 74.9868C162.396 74.9751 162.379 74.9575 162.361 74.9341C162.346 74.9106 162.335 74.8799 162.326 74.8418C162.317 74.8037 162.313 74.7568 162.313 74.7012C162.313 74.6484 162.317 74.603 162.326 74.5649C162.335 74.5269 162.345 74.4961 162.357 74.4727C162.371 74.4463 162.387 74.4272 162.405 74.4155C162.426 74.4009 162.448 74.3936 162.471 74.3936H163.657V70.0693L162.559 70.7241C162.503 70.7534 162.458 70.771 162.423 70.7769C162.39 70.7827 162.364 70.7769 162.344 70.7593C162.323 70.7388 162.308 70.7065 162.3 70.6626C162.294 70.6187 162.291 70.563 162.291 70.4956C162.291 70.4458 162.292 70.4033 162.295 70.3682C162.301 70.333 162.308 70.3037 162.317 70.2803C162.326 70.2568 162.338 70.2363 162.352 70.2188C162.37 70.2012 162.392 70.1836 162.418 70.166L163.728 69.3267C163.74 69.3179 163.754 69.3105 163.772 69.3047C163.789 69.2988 163.811 69.293 163.838 69.2871C163.864 69.2812 163.895 69.2783 163.93 69.2783C163.965 69.2754 164.009 69.2739 164.062 69.2739C164.132 69.2739 164.191 69.2769 164.238 69.2827C164.284 69.2886 164.321 69.2974 164.347 69.3091C164.374 69.3179 164.391 69.3311 164.4 69.3486C164.409 69.3633 164.413 69.3794 164.413 69.397V74.3936H165.442C165.465 74.3936 165.487 74.4009 165.508 74.4155C165.528 74.4272 165.544 74.4463 165.556 74.4727C165.571 74.4961 165.581 74.5269 165.587 74.5649C165.595 74.603 165.6 74.6484 165.6 74.7012Z" fill="black"/>
</svg>
