<svg width="80" height="17" viewBox="0 0 80 17" fill="none" xmlns="http://www.w3.org/2000/svg">
<path d="M0 0.27179H2.77788L7.57491 11.9119L12.3597 0.27179H15.1621L9.11681 14.8003C8.85983 15.4298 8.24796 15.8372 7.57491 15.8372C6.90186 15.8372 6.30223 15.4298 6.03301 14.8003L0 0.27179Z" fill="black"/>
<path d="M18.821 0.27179H28.0969V2.72818H21.3664V6.71519H26.7998V9.17158H21.3664V13.3808H28.0969V15.8372H18.821V0.27179Z" fill="black"/>
<path d="M31.9761 13.2818L33.9708 11.6771C34.7784 12.9238 36.0511 13.6768 37.5563 13.6768C39.0125 13.6768 40.0527 12.9115 40.0527 11.7512C40.0527 10.6279 39.3307 9.93665 37.8622 9.38119L36.1612 8.764C33.7015 7.86291 32.5145 6.50511 32.5145 4.382C32.5145 1.66639 34.6683 0 37.5318 0C39.4408 0 41.0806 0.74062 42.2065 2.12311L40.4443 3.85122C39.6611 2.91311 38.7311 2.40702 37.5073 2.40702C36.2102 2.40702 35.0721 3.06123 35.0721 4.20919C35.0721 5.35715 35.8308 5.8509 37.4217 6.44339L38.9881 7.03589C41.2642 7.8876 42.6348 9.24541 42.6226 11.5907C42.6226 14.3063 40.4933 16.0838 37.4706 16.0838C34.9987 16.0961 32.8816 14.9729 31.9761 13.2818Z" fill="black"/>
<path d="M57.7359 15.8248L49.0474 4.6291V15.8248H46.5021V0.27179H48.717L57.3933 11.4552V0.27179H59.9631V15.8372L57.7359 15.8248Z" fill="black"/>
<path d="M71.405 0.27179C72.078 0.27179 72.6899 0.679131 72.9591 1.29631L79.2491 15.8372H76.5936L74.8314 11.7637H67.9173L66.1796 15.8372H63.5486L69.8508 1.29631C70.12 0.666787 70.7319 0.27179 71.405 0.27179ZM68.9085 9.46782H73.8647L71.3927 3.72802L68.9085 9.46782Z" fill="black"/>
</svg>
